<svg version="1.1" xmlns="http://www.w3.org/2000/svg" xmlns:xlink="http://www.w3.org/1999/xlink" x="0px" y="0px" width="100px" height="38px" viewBox="0 0 133 48" xml:space="preserve">
<path fill="#ffffff" d="M132.3,18.5H98.7c2-3.7,5.8-6.2,10.3-6.2c3.1,0,5.9,1.2,8,3.2h14.5C128,6.4,119.2,0,109,0
    c-8,0-15.1,3.9-19.4,9.9C92,14,93.5,18.8,93.5,24c0,1.9-0.2,3.7-0.6,5.5h26.3c-2,3.7-5.8,6.2-10.3,6.2c-3.1,0-5.9-1.2-8-3.2h-8.9
    c-0.6,2-1.5,3.8-2.6,5.6c4.4,6,11.4,9.9,19.4,9.9c13.2,0,24-10.7,24-24C133,22.1,132.3,18.5,132.3,18.5z M48,24C48,10.7,37.2,0,24,0
    S0,10.7,0,24s10.7,24,24,24c10.3,0,19-6.4,22.4-15.5H31.9c-2.1,1.9-4.9,3.2-8,3.2c-4.5,0-8.3-2.5-10.3-6.2h33.6
    C47.8,27.7,48,25.9,48,24z M13.7,18.5c2-3.7,5.8-6.2,10.3-6.2s8.3,2.5,10.3,6.2H13.7z M83.1,6.8c0,0,0.2,0.2,0.3,0.3
    C83.4,7,83.3,6.9,83.1,6.8z M83.4,7.1C83.5,7.1,83.5,7.1,83.4,7.1L83.4,7.1z M87.3,12.1l-9.2,11c0,0.3,0,0.6,0,0.9
    c0,6-4.6,11-10.5,11.6l-9.2,11c2.5,0.9,5.2,1.4,8.1,1.4c13.2,0,24-10.7,24-24C90.5,19.7,89.3,15.6,87.3,12.1z M80.6,4.6
    c-0.9-0.7-1.9-1.2-2.9-1.8l-8.3,9.9c1.1,0.3,2.2,0.8,3.2,1.4L80.6,4.6z M55.9,28.9l-8.3,9.9c0.7,0.9,1.4,1.7,2.2,2.5l8-9.5
    C57,30.9,56.4,29.9,55.9,28.9z M52.4,43.4c0.9,0.7,1.8,1.3,2.8,1.8l8.3-9.9c-1.1-0.3-2.2-0.8-3.2-1.4L52.4,43.4z M83.1,6.8l-8,9.5
    c0.8,0.9,1.4,1.8,1.9,2.9l8.3-9.9C84.7,8.4,83.1,6.8,83.1,6.8z M72.6,14.1L57.8,31.8c0.7,0.8,1.6,1.5,2.5,2.1l14.8-17.6
    C74.4,15.4,72.6,14.1,72.6,14.1z M77.1,19.2L63.5,35.3c0.9,0.2,1.9,0.4,2.9,0.4c0.4,0,0.8,0,1.1-0.1l10.5-12.5
    C78,21.7,77.6,20.4,77.1,19.2z M54.9,24.9l10.5-12.5c0.4,0,0.8-0.1,1.1-0.1c1,0,2,0.1,2.9,0.4L55.9,28.9
    C55.3,27.6,55,26.3,54.9,24.9z M54.9,24.9c0-0.3,0-0.6,0-0.9c0-6.1,4.6-11,10.5-11.6l9.2-11C72,0.5,69.3,0,66.5,0
    c-8,0-15.1,3.9-19.4,9.9C49.5,14,51,18.8,51,24c0,2.2-0.8,6.5-0.8,6.5L54.9,24.9z"></path>
</svg>